<svg width="30" height="31" viewBox="0 0 30 31" fill="none" xmlns="http://www.w3.org/2000/svg">
<path d="M29.9034 8.86939C29.8866 7.60766 29.6504 6.35847 29.2054 5.1777C28.8194 4.18173 28.23 3.27721 27.4747 2.52193C26.7195 1.76665 25.8149 1.17723 24.819 0.791315C23.6534 0.353771 22.422 0.117183 21.1773 0.0916261C19.5746 0.0199912 19.0665 0 14.9983 0C10.9301 0 10.4087 1.11709e-07 8.81775 0.0916261C7.57357 0.117371 6.34276 0.353956 5.1777 0.791315C4.18157 1.17696 3.27691 1.76629 2.5216 2.5216C1.76629 3.27691 1.17696 4.18157 0.791315 5.1777C0.352895 6.3424 0.11682 7.57348 0.0932919 8.81775C0.021657 10.422 0 10.9301 0 14.9983C0 19.0665 -1.24121e-08 19.5863 0.0932919 21.1789C0.118281 22.425 0.353176 23.6545 0.791315 24.8223C1.17761 25.8181 1.76737 26.7224 2.52294 27.4774C3.2785 28.2324 4.18325 28.8215 5.17936 29.207C6.34124 29.6621 7.57226 29.9157 8.81942 29.9567C10.4237 30.0283 10.9318 30.05 15 30.05C19.0682 30.05 19.5896 30.05 21.1806 29.9567C22.4253 29.9322 23.6568 29.6961 24.8223 29.2587C25.818 28.8723 26.7223 28.2827 27.4775 27.5275C28.2327 26.7723 28.8223 25.868 29.2087 24.8723C29.6468 23.7061 29.8817 22.4767 29.9067 21.2289C29.9783 19.6263 30 19.1182 30 15.0483C29.9967 10.9801 29.9967 10.4637 29.9034 8.86939V8.86939ZM14.9883 22.6916C10.7336 22.6916 7.28676 19.2448 7.28676 14.99C7.28676 10.7352 10.7336 7.28843 14.9883 7.28843C17.0309 7.28843 18.9899 8.09984 20.4342 9.54417C21.8785 10.9885 22.6899 12.9474 22.6899 14.99C22.6899 17.0326 21.8785 18.9915 20.4342 20.4358C18.9899 21.8802 17.0309 22.6916 14.9883 22.6916V22.6916ZM22.9964 8.79942C22.7606 8.79964 22.5269 8.75334 22.3089 8.66317C22.091 8.57299 21.8929 8.44072 21.7261 8.27391C21.5593 8.10711 21.427 7.90905 21.3368 7.69106C21.2467 7.47308 21.2004 7.23945 21.2006 7.00355C21.2006 6.76783 21.247 6.53441 21.3372 6.31662C21.4274 6.09884 21.5596 5.90096 21.7263 5.73427C21.893 5.56759 22.0909 5.43537 22.3087 5.34516C22.5265 5.25495 22.7599 5.20852 22.9956 5.20852C23.2313 5.20852 23.4648 5.25495 23.6825 5.34516C23.9003 5.43537 24.0982 5.56759 24.2649 5.73427C24.4316 5.90096 24.5638 6.09884 24.654 6.31662C24.7442 6.53441 24.7907 6.76783 24.7907 7.00355C24.7907 7.99645 23.9877 8.79942 22.9964 8.79942Z" fill="white"/>
<path d="M14.9884 19.9928C17.7513 19.9928 19.9911 17.753 19.9911 14.99C19.9911 12.2271 17.7513 9.98724 14.9884 9.98724C12.2254 9.98724 9.9856 12.2271 9.9856 14.99C9.9856 17.753 12.2254 19.9928 14.9884 19.9928Z" fill="white"/>
</svg>
