<svg width="30" height="33" viewBox="0 0 30 33" fill="none" xmlns="http://www.w3.org/2000/svg">
<path d="M29.9034 9.64879C29.8866 8.27618 29.6504 6.91721 29.2054 5.63269C28.8194 4.5492 28.23 3.56519 27.4747 2.74354C26.7195 1.9219 25.8149 1.28068 24.819 0.860852C23.6534 0.384859 22.422 0.127481 21.1773 0.0996776C19.5746 0.0217479 19.0665 0 14.9983 0C10.9301 0 10.4087 1.21525e-07 8.81775 0.0996776C7.57357 0.127685 6.34276 0.38506 5.1777 0.860852C4.18157 1.28038 3.27691 1.9215 2.5216 2.74318C1.76629 3.56487 1.17696 4.54903 0.791315 5.63269C0.352895 6.89974 0.11682 8.239 0.0932919 9.5926C0.021657 11.3379 0 11.8906 0 16.3163C0 20.742 -1.24121e-08 21.3074 0.0932919 23.04C0.118281 24.3956 0.353176 25.7331 0.791315 27.0035C1.17761 28.0869 1.76737 29.0706 2.52294 29.892C3.2785 30.7133 4.18325 31.3542 5.17936 31.7736C6.34124 32.2687 7.57226 32.5445 8.81942 32.5891C10.4237 32.667 10.9318 32.6906 15 32.6906C19.0682 32.6906 19.5896 32.6906 21.1806 32.5891C22.4253 32.5624 23.6568 32.3057 24.8223 31.8298C25.818 31.4094 26.7223 30.7681 27.4775 29.9465C28.2327 29.1249 28.8223 28.1411 29.2087 27.0579C29.6468 25.7893 29.8817 24.4518 29.9067 23.0944C29.9783 21.3509 30 20.7982 30 16.3707C29.9967 11.945 29.9967 11.3832 29.9034 9.64879V9.64879ZM14.9883 24.6856C10.7336 24.6856 7.28676 20.9359 7.28676 16.3072C7.28676 11.6786 10.7336 7.92889 14.9883 7.92889C17.0309 7.92889 18.9899 8.81161 20.4342 10.3829C21.8785 11.9541 22.6899 14.0852 22.6899 16.3072C22.6899 18.5293 21.8785 20.6604 20.4342 22.2316C18.9899 23.8029 17.0309 24.6856 14.9883 24.6856V24.6856ZM22.9964 9.57267C22.7606 9.5729 22.5269 9.52254 22.3089 9.42444C22.091 9.32634 21.8929 9.18244 21.7261 9.00098C21.5593 8.81952 21.427 8.60405 21.3368 8.36691C21.2467 8.12977 21.2004 7.87562 21.2006 7.61899C21.2006 7.36255 21.247 7.10862 21.3372 6.87169C21.4274 6.63477 21.5596 6.4195 21.7263 6.23817C21.893 6.05684 22.0909 5.913 22.3087 5.81486C22.5265 5.71672 22.7599 5.66621 22.9956 5.66621C23.2313 5.66621 23.4648 5.71672 23.6825 5.81486C23.9003 5.913 24.0982 6.05684 24.2649 6.23817C24.4316 6.4195 24.5638 6.63477 24.654 6.87169C24.7442 7.10862 24.7907 7.36255 24.7907 7.61899C24.7907 8.69913 23.9877 9.57267 22.9964 9.57267Z" fill="#141414"/>
<path d="M14.9881 21.7498C17.751 21.7498 19.9908 19.3131 19.9908 16.3074C19.9908 13.3016 17.751 10.865 14.9881 10.865C12.2252 10.865 9.98535 13.3016 9.98535 16.3074C9.98535 19.3131 12.2252 21.7498 14.9881 21.7498Z" fill="#141414"/>
</svg>
