<svg width="34" height="23" viewBox="0 0 34 23" fill="none" xmlns="http://www.w3.org/2000/svg">
<path fill-rule="evenodd" clip-rule="evenodd" d="M33.2201 2.18039C33.4553 1.32239 33.2201 0.690674 32.0939 0.690674H28.3752C27.4289 0.690674 26.9926 1.23596 26.756 1.83782C26.756 1.83782 24.8648 6.8601 22.186 10.1224C21.319 11.0684 20.9251 11.3685 20.452 11.3685C20.2154 11.3685 19.8598 11.0684 19.8598 10.2088V2.18039C19.8598 1.14953 19.5992 0.690674 18.8115 0.690674H12.9636C12.3729 0.690674 12.0173 1.16839 12.0173 1.62253C12.0173 2.59839 13.3575 2.82467 13.4949 5.57153V11.5398C13.4949 12.8488 13.2781 13.0861 12.805 13.0861C11.5442 13.0861 8.47716 8.04024 6.65678 2.26682C6.30403 1.14324 5.94704 0.690674 4.99648 0.690674H1.27497C0.212496 0.690674 0 1.23596 0 1.83782C0 2.90953 1.26081 8.23353 5.87196 15.2751C8.94606 20.0837 13.2739 22.6907 17.2164 22.6907C19.5808 22.6907 19.8726 22.1124 19.8726 21.1145V17.4798C19.8726 16.3217 20.0964 16.0907 20.8458 16.0907C21.3983 16.0907 22.3432 16.3924 24.5503 18.7102C27.0719 21.4587 27.487 22.6907 28.9065 22.6907H32.6251C33.6876 22.6907 34.2203 22.1124 33.9143 20.9684C33.5771 19.8307 32.373 18.1791 30.7764 16.2195C29.9095 15.1038 28.609 13.9017 28.2137 13.2998C27.6627 12.5282 27.8199 12.1841 28.2137 11.4974C28.2137 11.4974 32.747 4.54225 33.2187 2.18039H33.2201Z" fill="#141414"/>
</svg>
